<svg width="1200" height="800" viewBox="0 0 1200 800" fill="none" xmlns="http://www.w3.org/2000/svg">
<path d="M532.561 519.311H504.422C503.431 519.311 502.719 518.192 502.719 517.124C502.719 516.745 517.692 468.473 517.692 468.473C518.225 466.668 518.276 466.615 518.48 466.615H518.505C518.732 466.615 518.759 466.668 519.291 468.473C519.291 468.473 534.264 516.745 534.264 517.124C534.264 518.192 533.501 519.311 532.562 519.311H532.561ZM570.512 408.864C570.373 408.387 570.091 407.964 569.705 407.65C569.319 407.337 568.847 407.148 568.351 407.11H465.021C464.53 407.149 464.061 407.335 463.676 407.643C463.291 407.951 463.007 408.368 462.86 408.839C462.86 408.839 405.743 597.399 405.743 597.756C405.743 598.695 406.48 599.458 407.446 599.458H475.748C476.019 599.345 476.257 599.168 476.443 598.942C476.629 598.716 476.757 598.448 476.816 598.161L484.772 572.743C484.894 572.429 485.106 572.157 485.382 571.962C485.658 571.767 485.985 571.658 486.323 571.648L549.338 571.599C550.023 571.65 550.635 572.133 550.889 572.743L559.023 598.161C559.15 598.748 559.557 599.28 560.091 599.483L627.299 599.458C628.238 599.458 629.028 598.746 629.028 597.805C629.028 597.475 570.512 408.864 570.512 408.864V408.864ZM765.225 485.851L723.256 485.876C723.256 485.876 722.139 485.546 722.139 484.275L722.114 463.101C722.114 461.83 723.233 461.499 723.233 461.499H761.716C766.191 461.499 775.24 463.736 775.24 474.082C775.24 484.427 765.225 485.851 765.225 485.851V485.851ZM966.444 469.457H1061.54V407.102H939.27C927.833 407.102 911.742 413 902.515 419.837C893.288 426.674 879.943 442.257 879.943 463.736C879.943 485.215 892.983 501.917 892.983 501.917C899.667 510.203 916.496 527.464 916.496 527.464C916.877 527.871 917.106 528.403 917.106 529.015C917.106 530.309 916.064 531.352 914.767 531.352H820.588C809.124 531.301 808.336 526.752 808.336 526.091C808.336 524.921 809.759 524.184 809.759 524.184C814.056 522.125 822.823 515.286 822.823 515.286C841.431 500.798 843.671 480.921 843.671 470.27C843.671 459.592 842.067 440.706 822.978 424.159C803.888 407.61 779.714 407.153 779.714 407.153H645.321V598.359C645.321 598.967 645.88 599.45 646.49 599.45H721.3V545.816C721.3 544.877 722.748 545.816 722.748 545.816L761.716 584.962C775.57 598.967 798.473 599.45 798.473 599.45L945.804 599.425C970.944 599.425 984.925 585.751 988.762 581.937C992.575 578.098 1005.31 563.788 1005.31 540.072C1005.31 516.381 994.482 504.256 989.855 498.69C985.738 493.707 969.317 476.319 965.884 472.709C965.678 472.54 965.511 472.327 965.397 472.085C965.282 471.844 965.223 471.58 965.223 471.313C965.223 470.472 965.707 469.685 966.444 469.455V469.457ZM371.601 599.446C372.109 599.446 372.465 599.09 372.618 598.531C372.618 598.531 430.498 408.42 430.498 408.24C430.498 407.732 430.193 407.174 429.71 407.124H358.357C358.001 407.124 357.772 407.403 357.696 407.785C357.696 407.81 342.927 457.224 342.927 457.249C342.825 457.656 342.622 457.91 342.266 457.91C341.91 457.91 341.605 457.554 341.554 457.249L326.1 407.759C326.049 407.427 325.795 407.124 325.439 407.124L246.639 407.098C246.525 407.13 246.419 407.187 246.331 407.267C246.243 407.346 246.174 407.445 246.131 407.556L232.277 457.224C232.201 457.656 231.972 457.91 231.59 457.91C231.429 457.907 231.273 457.847 231.152 457.74C231.031 457.632 230.952 457.486 230.929 457.326L216.237 407.708C216.219 407.557 216.152 407.415 216.047 407.305C215.941 407.195 215.802 407.122 215.652 407.098H139.598C139.298 407.102 139.013 407.225 138.803 407.439C138.593 407.653 138.477 407.941 138.479 408.24C138.479 408.342 138.504 408.545 138.504 408.545L197.249 598.531C197.401 599.09 197.757 599.446 198.266 599.446L261.434 599.472C261.813 599.421 262.197 598.989 262.296 598.531C262.322 598.531 284.284 527.839 284.284 527.839C284.411 527.407 284.589 527.155 284.945 527.155C285.326 527.155 285.532 527.458 285.632 527.814L307.06 598.836C307.122 599.015 307.239 599.17 307.394 599.28C307.549 599.389 307.735 599.447 307.924 599.446H371.601V599.446ZM316.65 200.524C305.186 200.524 289.122 206.421 279.896 213.26C270.665 220.097 257.323 235.68 257.323 257.159C257.323 278.638 270.362 295.339 270.362 295.339C277.048 303.625 293.875 321.011 293.875 321.011C294.256 321.418 294.485 321.952 294.485 322.537C294.485 323.833 293.443 324.901 292.148 324.901H138.461V392.873H323.184C348.299 392.873 362.304 379.197 366.143 375.359C369.956 371.546 382.666 357.234 382.666 333.518C382.666 309.827 371.863 297.575 367.236 292.009C363.117 287.026 346.697 269.742 343.265 266.157C343.06 265.981 342.894 265.762 342.78 265.517C342.666 265.271 342.606 265.004 342.604 264.733C342.604 263.894 343.087 263.131 343.825 262.877H432.792V392.873H501.195V263.208H584.241V200.524H316.65ZM913.261 279.275L871.295 279.301C871.295 279.301 870.176 278.97 870.176 277.699L870.15 256.525C870.15 255.254 871.269 254.923 871.269 254.923H909.755C914.227 254.923 923.276 257.161 923.276 267.506C923.276 277.852 913.263 279.275 913.263 279.275H913.261ZM968.626 324.776C957.186 324.725 956.374 320.176 956.374 319.515C956.374 318.346 957.796 317.609 957.796 317.609C962.092 315.549 970.862 308.71 970.862 308.71C989.47 294.223 991.707 274.345 991.707 263.695C991.707 253.017 990.104 234.131 971.016 217.584C951.925 201.035 927.751 200.526 927.751 200.526H793.357V391.781C793.357 392.391 793.918 392.876 794.529 392.876H869.337V339.264C869.337 338.298 870.786 339.264 870.786 339.264L909.755 378.385C923.607 392.389 946.51 392.873 946.51 392.873H1061.53V324.78H968.626V324.776ZM684.244 312.717H656.104C655.062 312.717 654.403 311.599 654.403 310.531C654.403 310.124 669.373 261.88 669.373 261.88C669.907 260.075 670.058 260.022 670.162 260.022H670.187C670.289 260.022 670.441 260.075 670.975 261.88C670.975 261.88 685.946 310.126 685.946 310.531C685.946 311.599 685.261 312.717 684.244 312.717V312.717ZM722.118 202.22C721.983 201.744 721.702 201.324 721.314 201.018C720.926 200.712 720.451 200.536 719.957 200.517H616.629C615.612 200.567 614.748 201.254 614.468 202.195C614.468 202.195 557.401 390.805 557.401 391.161C557.401 392.102 558.164 392.865 559.103 392.865H627.407C627.966 392.689 628.371 392.153 628.498 391.568L636.456 366.125C636.584 365.816 636.798 365.551 637.073 365.362C637.348 365.172 637.672 365.067 638.006 365.057H700.995C701.332 365.08 701.656 365.194 701.934 365.386C702.211 365.579 702.431 365.843 702.571 366.15L710.707 391.568C710.832 392.155 711.239 392.687 711.772 392.89L778.981 392.865C779.204 392.87 779.426 392.83 779.633 392.748C779.84 392.665 780.029 392.542 780.187 392.386C780.346 392.229 780.472 392.043 780.558 391.837C780.643 391.631 780.686 391.41 780.684 391.187C780.684 390.882 722.118 202.22 722.118 202.22" fill="white"/>
<path d="M722.118 202.22C721.983 201.744 721.702 201.324 721.314 201.018C720.926 200.712 720.451 200.536 719.957 200.517H616.629C615.612 200.567 614.748 201.254 614.468 202.195C614.468 202.195 557.401 390.805 557.401 391.161C557.401 392.102 558.164 392.865 559.103 392.865H627.407C627.966 392.689 628.371 392.153 628.498 391.568L636.456 366.125C636.584 365.816 636.798 365.551 637.073 365.362C637.348 365.172 637.672 365.067 638.006 365.057H700.995C701.332 365.08 701.656 365.194 701.934 365.386C702.211 365.579 702.431 365.843 702.571 366.15L710.707 391.568C710.832 392.155 711.239 392.687 711.772 392.89L778.981 392.865C779.204 392.87 779.426 392.83 779.633 392.748C779.84 392.665 780.029 392.542 780.187 392.386C780.346 392.229 780.472 392.043 780.558 391.837C780.643 391.631 780.686 391.41 780.684 391.187C780.684 390.882 722.118 202.22 722.118 202.22M532.561 519.311H504.422C503.431 519.311 502.719 518.192 502.719 517.124C502.719 516.745 517.692 468.473 517.692 468.473C518.225 466.668 518.276 466.615 518.48 466.615H518.505C518.732 466.615 518.759 466.668 519.291 468.473C519.291 468.473 534.264 516.745 534.264 517.124C534.264 518.192 533.501 519.311 532.562 519.311H532.561ZM570.512 408.864C570.373 408.387 570.091 407.964 569.705 407.65C569.319 407.337 568.847 407.148 568.351 407.11H465.021C464.53 407.149 464.061 407.335 463.676 407.643C463.291 407.951 463.007 408.368 462.86 408.839C462.86 408.839 405.743 597.399 405.743 597.756C405.743 598.695 406.48 599.458 407.446 599.458H475.748C476.019 599.345 476.257 599.168 476.443 598.942C476.629 598.716 476.757 598.448 476.816 598.161L484.772 572.743C484.894 572.429 485.106 572.157 485.382 571.962C485.658 571.767 485.985 571.658 486.323 571.648L549.338 571.599C550.023 571.65 550.635 572.133 550.889 572.743L559.023 598.161C559.15 598.748 559.557 599.28 560.091 599.483L627.299 599.458C628.238 599.458 629.028 598.746 629.028 597.805C629.028 597.475 570.512 408.864 570.512 408.864V408.864ZM765.225 485.851L723.256 485.876C723.256 485.876 722.139 485.546 722.139 484.275L722.114 463.101C722.114 461.83 723.233 461.499 723.233 461.499H761.716C766.191 461.499 775.24 463.736 775.24 474.082C775.24 484.427 765.225 485.851 765.225 485.851V485.851ZM966.444 469.457H1061.54V407.102H939.27C927.833 407.102 911.742 413 902.515 419.837C893.288 426.674 879.943 442.257 879.943 463.736C879.943 485.215 892.983 501.917 892.983 501.917C899.667 510.203 916.496 527.464 916.496 527.464C916.877 527.871 917.106 528.403 917.106 529.015C917.106 530.309 916.064 531.352 914.767 531.352H820.588C809.124 531.301 808.336 526.752 808.336 526.091C808.336 524.921 809.759 524.184 809.759 524.184C814.056 522.125 822.823 515.286 822.823 515.286C841.431 500.798 843.671 480.921 843.671 470.27C843.671 459.592 842.067 440.706 822.978 424.159C803.888 407.61 779.714 407.153 779.714 407.153H645.321V598.359C645.321 598.967 645.88 599.45 646.49 599.45H721.3V545.816C721.3 544.877 722.748 545.816 722.748 545.816L761.716 584.962C775.57 598.967 798.473 599.45 798.473 599.45L945.804 599.425C970.944 599.425 984.925 585.751 988.762 581.937C992.575 578.098 1005.31 563.788 1005.31 540.072C1005.31 516.381 994.482 504.256 989.855 498.69C985.738 493.707 969.317 476.319 965.884 472.709C965.678 472.54 965.511 472.327 965.397 472.085C965.282 471.844 965.223 471.58 965.223 471.313C965.223 470.472 965.707 469.685 966.444 469.455V469.457ZM371.601 599.446C372.109 599.446 372.465 599.09 372.618 598.531C372.618 598.531 430.498 408.42 430.498 408.24C430.498 407.732 430.193 407.174 429.71 407.124H358.357C358.001 407.124 357.772 407.403 357.696 407.785C357.696 407.81 342.927 457.224 342.927 457.249C342.825 457.656 342.622 457.91 342.266 457.91C341.91 457.91 341.605 457.554 341.554 457.249L326.1 407.759C326.049 407.427 325.795 407.124 325.439 407.124L246.639 407.098C246.525 407.13 246.419 407.187 246.331 407.267C246.243 407.346 246.174 407.445 246.131 407.556L232.277 457.224C232.201 457.656 231.972 457.91 231.59 457.91C231.429 457.907 231.273 457.847 231.152 457.74C231.031 457.632 230.952 457.486 230.929 457.326L216.237 407.708C216.219 407.557 216.152 407.415 216.047 407.305C215.941 407.195 215.802 407.122 215.652 407.098H139.598C139.298 407.102 139.013 407.225 138.803 407.439C138.593 407.653 138.477 407.941 138.479 408.24C138.479 408.342 138.504 408.545 138.504 408.545L197.249 598.531C197.401 599.09 197.757 599.446 198.266 599.446L261.434 599.472C261.813 599.421 262.197 598.989 262.296 598.531C262.322 598.531 284.284 527.839 284.284 527.839C284.411 527.407 284.589 527.155 284.945 527.155C285.326 527.155 285.532 527.458 285.632 527.814L307.06 598.836C307.122 599.015 307.239 599.17 307.394 599.28C307.549 599.389 307.735 599.447 307.924 599.446H371.601V599.446ZM316.65 200.524C305.186 200.524 289.122 206.421 279.896 213.26C270.665 220.097 257.323 235.68 257.323 257.159C257.323 278.638 270.362 295.339 270.362 295.339C277.048 303.625 293.875 321.011 293.875 321.011C294.256 321.418 294.485 321.952 294.485 322.537C294.485 323.833 293.443 324.901 292.148 324.901H138.461V392.873H323.184C348.299 392.873 362.304 379.197 366.143 375.359C369.956 371.546 382.666 357.234 382.666 333.518C382.666 309.827 371.863 297.575 367.236 292.009C363.117 287.026 346.697 269.742 343.265 266.157C343.06 265.981 342.894 265.762 342.78 265.517C342.666 265.271 342.606 265.004 342.604 264.733C342.604 263.894 343.087 263.131 343.825 262.877H432.792V392.873H501.195V263.208H584.241V200.524H316.65ZM913.261 279.275L871.295 279.301C871.295 279.301 870.176 278.97 870.176 277.699L870.15 256.525C870.15 255.254 871.269 254.923 871.269 254.923H909.755C914.227 254.923 923.276 257.161 923.276 267.506C923.276 277.852 913.263 279.275 913.263 279.275H913.261ZM968.626 324.776C957.186 324.725 956.374 320.176 956.374 319.515C956.374 318.346 957.796 317.609 957.796 317.609C962.092 315.549 970.862 308.71 970.862 308.71C989.47 294.223 991.707 274.345 991.707 263.695C991.707 253.017 990.104 234.131 971.016 217.584C951.925 201.035 927.751 200.526 927.751 200.526H793.357V391.781C793.357 392.391 793.918 392.876 794.529 392.876H869.337V339.264C869.337 338.298 870.786 339.264 870.786 339.264L909.755 378.385C923.607 392.389 946.51 392.873 946.51 392.873H1061.53V324.78H968.626V324.776ZM684.244 312.717H656.104C655.062 312.717 654.403 311.599 654.403 310.531C654.403 310.124 669.373 261.88 669.373 261.88C669.907 260.075 670.058 260.022 670.162 260.022H670.187C670.289 260.022 670.441 260.075 670.975 261.88C670.975 261.88 685.946 310.126 685.946 310.531C685.946 311.599 685.261 312.717 684.244 312.717V312.717Z" stroke="white" stroke-width="1.95567"/>
</svg>
